<svg xmlns="http://www.w3.org/2000/svg" viewBox="0 0 512 512">
  <defs>
    <linearGradient id="grad1" x1="0%" y1="0%" x2="100%" y2="100%">
      <stop offset="0%" style="stop-color:#0f172a;stop-opacity:1" />
      <stop offset="100%" style="stop-color:#1e3a8a;stop-opacity:1" />
    </linearGradient>
    <linearGradient id="gold" x1="0%" y1="0%" x2="100%" y2="100%">
      <stop offset="0%" style="stop-color:#fcd34d;stop-opacity:1" />
      <stop offset="50%" style="stop-color:#fbbf24;stop-opacity:1" />
      <stop offset="100%" style="stop-color:#b45309;stop-opacity:1" />
    </linearGradient>
    <filter id="glow">
      <feGaussianBlur stdDeviation="2.5" result="coloredBlur"/>
      <feMerge>
        <feMergeNode in="coloredBlur"/>
        <feMergeNode in="SourceGraphic"/>
      </feMerge>
    </filter>
  </defs>
  
  <!-- Background -->
  <rect width="512" height="512" rx="100" ry="100" fill="url(#grad1)" stroke="url(#gold)" stroke-width="12"/>
  
  <!-- Bull Icon -->
  <g transform="translate(106, 106) scale(0.6)" filter="url(#glow)">
    <path fill="url(#gold)" d="M250 50c-30 0-60 10-80 30-20-20-50-30-80-30-55 0-100 45-100 100 0 40 25 75 60 90 10 30 40 110 80 140 10 10 30 20 40 20s30-10 40-20c40-30 70-110 80-140 35-15 60-50 60-90 0-55-45-100-100-100zm0 20c45 0 80 35 80 80 0 35-20 65-50 75-5 25-30 100-70 125-40-25-65-100-70-125-30-10-50-40-50-75 0-45 35-80 80-80 20 0 40 10 60 30-5-5-20-15-20-15s-20-20-60-20z"/>
  </g>
  
  <!-- Text -->
  <text x="50%" y="420" font-family="Arial, sans-serif" font-size="60" font-weight="bold" fill="url(#gold)" text-anchor="middle" letter-spacing="4">FRIGOGEST</text>
</svg>
